<?xml version="1.0" standalone="no"?>
<!DOCTYPE svg PUBLIC "-//W3C//DTD SVG 20010904//EN"
 "http://www.w3.org/TR/2001/REC-SVG-20010904/DTD/svg10.dtd">
<svg version="1.0" xmlns="http://www.w3.org/2000/svg"
 width="232.000000pt" height="236.000000pt" viewBox="0 0 232.000000 236.000000"
 preserveAspectRatio="xMidYMid meet">
<g transform="translate(0.000000,236.000000) scale(0.100000,-0.100000)"
fill="#000000" stroke="none">
<path d="M59 2332 c6 -12 8 -22 4 -21 -20 3 -34 -2 -28 -10 3 -5 1 -12 -5 -16
-7 -4 -10 -374 -10 -1112 0 -1103 0 -1106 21 -1139 l21 -34 1129 0 1129 0 -2
1163 c-3 1025 -5 1162 -18 1162 -8 0 -18 5 -22 10 -5 7 -8 7 -8 0 0 -16 -2189
-8 -2208 8 -13 10 -14 9 -3 -11z m2251 -1167 l0 -1125 -1125 0 -1125 0 0 1125
0 1125 1125 0 1125 0 0 -1125z"/>
<path d="M1120 2240 c0 -5 5 -10 10 -10 15 0 13 -127 -2 -133 -7 -3 3 -6 22
-6 22 0 30 2 22 8 -18 11 -13 137 6 133 8 -1 11 2 7 8 -8 13 -65 13 -65 0z"/>
<path d="M1285 2223 c-3 -8 -5 -24 -5 -36 -1 -12 -7 -39 -14 -59 -11 -31 -11
-38 1 -42 23 -9 83 -7 83 3 0 5 -16 7 -35 4 -37 -5 -40 0 -28 45 5 20 10 23
34 18 16 -3 29 -1 29 4 0 6 -11 10 -25 10 -18 0 -25 5 -25 19 0 25 17 35 53
33 17 -2 26 2 22 8 -9 15 -83 9 -90 -7z"/>
<path d="M955 2220 c-3 -5 -12 -7 -19 -4 -10 4 -11 -5 -4 -43 4 -26 11 -66 14
-87 4 -27 8 -35 14 -26 4 7 6 28 3 47 -7 39 8 43 27 7 20 -37 45 -48 61 -27
10 12 10 15 2 9 -8 -4 -23 3 -38 19 -23 25 -23 29 -9 51 21 31 10 64 -21 64
-13 0 -26 -4 -30 -10z m43 -24 c4 -20 -15 -46 -34 -46 -8 0 -14 10 -14 23 0
42 41 62 48 23z"/>
<path d="M1473 2192 c-3 -9 -16 -41 -29 -71 -26 -57 -30 -76 -15 -66 5 3 12 1
16 -5 3 -5 21 -10 39 -10 40 0 72 31 81 80 8 43 -8 67 -53 79 -27 8 -34 7 -39
-7z m67 -27 c23 -27 -14 -115 -48 -115 -10 0 -25 6 -34 13 -14 11 -13 17 8 65
25 54 49 67 74 37z"/>
<path d="M767 2163 c-4 -3 -7 -27 -7 -53 0 -25 -5 -51 -12 -58 -9 -9 -9 -12 0
-12 7 0 12 -11 12 -24 0 -14 5 -28 10 -31 11 -7 13 4 10 46 -1 18 6 29 22 36
20 9 26 7 45 -16 11 -14 25 -23 29 -19 7 7 -85 137 -97 138 -3 0 -9 -3 -12 -7z
m36 -48 c17 -23 17 -25 -2 -35 -29 -15 -31 -13 -31 25 0 41 8 44 33 10z"/>
<path d="M613 2073 c3 -10 15 -43 26 -73 11 -30 18 -56 16 -58 -8 -8 -65 40
-82 68 -15 27 -33 32 -33 9 0 -12 59 -72 91 -93 29 -18 39 -13 39 19 0 32 -40
145 -52 145 -6 0 -8 -8 -5 -17z"/>
<path d="M1675 2063 c-62 -42 -89 -69 -76 -78 7 -4 21 4 32 19 19 25 21 25 45
9 17 -11 23 -21 18 -32 -14 -34 -16 -51 -6 -51 9 0 23 36 57 148 7 21 -28 13
-70 -15z m45 -10 c0 -35 -15 -46 -40 -33 l-23 12 24 19 c30 23 39 24 39 2z"/>
<path d="M1807 1936 l-58 -54 31 -26 c45 -37 81 -34 119 9 17 20 31 43 31 51
0 24 -19 54 -35 54 -8 0 -15 5 -15 10 0 18 -15 9 -73 -44z m99 -2 c11 -45 -69
-111 -101 -84 -23 19 -18 37 23 75 45 41 69 45 78 9z"/>
<path d="M376 1868 c-9 -12 -16 -27 -16 -33 0 -5 4 -5 8 2 10 15 102 -61 102
-84 0 -14 3 -14 20 2 23 21 27 37 7 29 -19 -7 -107 73 -100 91 8 22 -4 18 -21
-7z"/>
<path d="M1960 1789 c-36 -21 -72 -37 -80 -33 -8 3 -5 -4 7 -15 12 -11 24 -29
28 -41 6 -20 35 -29 35 -10 0 6 -4 10 -10 10 -5 0 -14 9 -19 19 -9 15 -6 22
16 36 26 17 27 17 41 -3 8 -12 19 -22 25 -22 5 0 2 9 -9 21 -18 20 -18 21 1
35 26 19 34 18 47 -11 12 -27 28 -33 28 -11 0 8 -8 21 -18 28 -11 7 -21 18
-23 25 -3 7 -28 -3 -69 -28z"/>
<path d="M290 1765 c0 -3 23 -27 50 -55 28 -28 50 -55 50 -60 0 -15 -67 4
-132 38 -5 2 -8 -1 -8 -8 0 -14 71 -45 123 -54 42 -8 48 4 21 44 -36 54 -104
116 -104 95z"/>
<path d="M1160 1728 c-25 -41 -25 -50 0 -73 11 -10 20 -28 19 -39 0 -21 0 -21
-9 1 -5 12 -20 29 -33 38 -44 28 -106 -15 -71 -50 9 -8 19 -15 24 -15 15 0 21
18 8 23 -10 4 -10 8 1 15 18 13 56 -1 56 -19 0 -8 6 -18 13 -22 16 -10 7 -70
-17 -112 l-17 -30 48 3 c26 2 48 0 48 -5 0 -4 -30 -9 -66 -10 -36 -1 -72 -7
-78 -12 -25 -21 -89 8 -144 66 -53 53 -54 54 -47 23 13 -61 -35 -120 -97 -120
-30 1 -117 41 -100 47 6 3 12 9 12 14 0 6 -6 9 -12 8 -27 -3 -38 2 -38 17 0
11 6 14 20 9 26 -8 26 11 1 25 -15 7 -23 6 -35 -6 -9 -8 -16 -11 -16 -5 0 11
-59 45 -66 38 -8 -8 38 -57 54 -58 10 -1 7 -4 -7 -8 -14 -4 -26 -12 -28 -18
-5 -15 34 -37 42 -23 3 5 1 10 -4 10 -6 0 -11 5 -11 10 0 6 6 10 14 10 8 0 16
3 19 8 2 4 3 2 1 -4 -1 -6 3 -17 9 -23 8 -8 7 -11 -3 -11 -11 0 -11 -3 -2 -12
10 -10 15 -10 21 1 6 10 13 6 28 -16 46 -64 56 -95 50 -154 l-5 -57 32 13 c37
16 168 35 236 35 47 0 69 17 54 41 -3 5 0 9 5 9 14 0 63 98 56 110 -3 6 1 7
10 4 10 -4 13 -13 9 -26 -4 -15 -3 -18 6 -13 9 6 11 4 6 -4 -5 -7 -11 -10 -14
-7 -3 3 -14 -8 -24 -25 -11 -17 -17 -33 -15 -35 2 -2 28 4 58 14 50 17 54 21
57 53 2 19 0 31 -4 27 -4 -4 -14 0 -22 10 -8 10 -7 5 3 -12 9 -16 13 -26 7
-22 -5 3 -12 -4 -16 -16 -4 -17 -8 -20 -17 -11 -8 8 -8 17 1 33 8 15 8 20 1
16 -10 -7 -12 -2 -10 22 0 4 9 10 19 14 13 5 19 3 17 -5 -1 -7 4 -11 11 -9 6
1 12 -3 12 -10 0 -9 3 -9 12 0 14 14 32 16 23 3 -3 -6 3 -14 12 -20 23 -14 7
-14 -18 -1 -15 9 -19 7 -19 -5 0 -9 4 -13 10 -10 6 4 7 -1 3 -10 -5 -16 -3
-16 24 -2 49 26 58 43 31 61 -12 9 -29 16 -38 16 -35 0 -87 144 -56 156 8 3
12 12 9 20 -6 15 33 35 55 27 18 -7 15 -23 -5 -23 -14 0 -15 -2 -4 -9 23 -15
51 -1 51 25 0 47 -65 51 -100 6 -11 -13 -20 -19 -20 -11 0 7 10 23 21 35 19
21 20 27 9 53 -21 52 -37 57 -60 19z m-134 -337 c30 -10 54 -14 54 -9 0 5 5 6
11 3 7 -5 4 -14 -7 -26 -11 -12 -13 -19 -5 -19 9 0 9 -5 1 -20 -6 -11 -18 -20
-26 -20 -9 0 -12 -5 -8 -12 5 -9 2 -8 -9 1 -15 12 -17 12 -11 -3 3 -9 1 -16
-5 -16 -6 0 -11 6 -11 13 0 8 -3 9 -8 1 -4 -6 -14 -11 -22 -11 -8 -1 -53 -6
-99 -12 -91 -12 -105 -9 -97 21 2 12 -2 27 -10 35 -8 8 -14 20 -14 26 0 8 4 7
12 -1 7 -7 17 -12 22 -12 6 0 5 4 -3 9 -23 15 -2 32 32 26 28 -6 36 -1 67 34
33 38 36 39 58 25 13 -9 48 -24 78 -33z"/>
<path d="M816 1693 c-8 -9 -7 -56 2 -69 4 -6 16 -16 27 -22 27 -15 30 -72 4
-72 -21 0 -25 -15 -7 -26 6 -4 20 4 32 19 17 21 25 24 39 16 20 -12 47 -5 47
10 0 6 -12 8 -29 5 -26 -5 -28 -4 -27 23 1 22 6 29 25 31 18 3 22 0 18 -12 -7
-18 18 -23 28 -6 10 17 -15 50 -38 50 -30 0 -47 -18 -47 -49 0 -19 -3 -22 -9
-12 -5 8 -6 24 -1 36 4 11 4 28 -1 37 -11 20 -55 49 -63 41z"/>
<path d="M1510 1670 c-26 -25 -30 -32 -20 -50 7 -14 8 -26 1 -38 -9 -15 -10
-14 -11 9 0 14 -5 30 -12 37 -17 17 -53 15 -68 -3 -15 -18 -6 -45 14 -45 10 0
13 6 9 16 -4 12 0 15 18 12 19 -2 24 -9 25 -31 1 -27 -1 -28 -27 -23 -22 4
-29 2 -29 -10 0 -13 7 -15 30 -10 27 5 29 4 21 -13 -16 -28 -88 -90 -115 -97
-17 -4 -22 -11 -19 -24 5 -18 -51 -70 -75 -70 -7 0 -12 -16 -12 -40 0 -60 27
-52 75 21 22 33 66 85 98 116 42 40 60 66 64 90 6 33 6 33 17 11 13 -25 37
-31 44 -10 2 7 -5 12 -16 12 -27 0 -25 57 3 72 27 15 35 28 35 60 0 39 -14 42
-50 8z"/>
<path d="M2077 1643 c-2 -5 -7 -25 -11 -46 -8 -42 -28 -56 -51 -37 -19 16 -19
25 1 45 20 20 10 33 -14 19 -26 -17 -26 -39 1 -70 22 -25 27 -27 51 -16 19 8
27 21 32 51 4 22 13 42 20 45 19 7 37 -27 22 -42 -14 -14 -4 -27 11 -17 15 8
14 48 -1 63 -13 13 -54 16 -61 5z"/>
<path d="M777 1593 c-23 -22 7 -69 33 -53 10 7 11 10 3 10 -7 0 -13 7 -13 16
0 13 7 15 33 10 30 -5 31 -5 13 9 -21 16 -58 20 -69 8z"/>
<path d="M1524 1585 c-18 -15 -18 -15 7 -9 27 6 55 -16 31 -24 -7 -2 -10 -8
-7 -12 6 -10 37 -1 47 14 11 17 -11 46 -35 46 -13 0 -32 -7 -43 -15z"/>
<path d="M200 1581 c0 -5 12 -23 26 -40 l26 -31 -30 0 c-16 0 -35 -7 -42 -15
-15 -18 -8 -18 42 -5 30 9 44 8 68 -5 17 -9 39 -14 48 -12 11 2 0 12 -33 28
-28 14 -58 38 -70 56 -20 32 -35 42 -35 24z"/>
<path d="M1104 1568 c-3 -4 3 -11 13 -17 17 -9 53 2 53 17 0 9 -61 9 -66 0z"/>
<path d="M1200 1568 c0 -12 39 -29 50 -23 21 13 9 30 -20 30 -16 0 -30 -3 -30
-7z"/>
<path d="M1768 1524 c-16 -8 -28 -21 -28 -29 0 -26 35 -16 53 15 20 33 15 36
-25 14z"/>
<path d="M1684 1506 c-10 -8 -14 -18 -9 -26 6 -10 9 -9 16 1 11 18 23 4 15
-16 -4 -11 -12 -14 -26 -10 -21 7 -28 -10 -7 -18 16 -6 -71 -46 -101 -47 -33
0 -80 26 -87 50 -3 11 -10 20 -14 20 -13 0 -99 -94 -141 -155 l-41 -60 58 -2
c86 -4 214 -23 249 -38 l31 -13 -5 49 c-6 61 0 83 38 143 24 38 34 46 40 35 7
-11 12 -11 22 -1 9 9 9 12 -1 12 -9 0 -10 4 -4 13 15 19 14 64 -1 70 -8 3 -22
0 -32 -7z m-138 -136 c3 0 2 -4 -1 -10 -3 -6 4 -10 18 -10 21 0 24 -5 25 -46
2 -28 -2 -43 -8 -39 -5 3 -10 -2 -10 -12 0 -15 -2 -16 -10 -3 -8 12 -10 12
-10 1 0 -10 -3 -11 -13 -3 -7 6 -50 14 -95 18 -46 4 -85 11 -88 15 -7 12 26
60 37 53 5 -3 9 -2 8 3 -1 4 0 11 1 16 3 9 7 24 9 35 1 4 5 1 10 -7 7 -11 10
-9 15 7 l7 21 50 -19 c27 -11 52 -20 55 -20z"/>
<path d="M1745 1464 c16 -12 17 -16 6 -23 -10 -7 -11 -10 -1 -16 8 -5 18 -1
26 10 17 23 11 31 -23 38 -26 5 -27 4 -8 -9z"/>
<path d="M149 1380 c-7 -56 -3 -71 21 -76 83 -17 115 -27 121 -35 3 -6 9 11
13 37 3 28 2 52 -4 58 -7 7 -10 -3 -10 -28 0 -35 -2 -38 -22 -32 -13 3 -28 6
-34 6 -6 0 -9 13 -6 31 3 22 1 30 -7 25 -6 -4 -11 -18 -11 -31 0 -21 -3 -23
-22 -16 -18 7 -23 16 -22 40 2 27 -14 46 -17 21z"/>
<path d="M2128 1373 c-86 -5 -91 -25 -5 -23 87 2 87 2 87 -19 0 -27 -28 -34
-47 -11 -16 18 -17 18 -53 0 -41 -21 -54 -42 -37 -59 15 -15 27 -14 21 3 -3 7
7 23 21 34 26 21 27 21 47 2 27 -25 64 -12 60 21 -1 13 -3 32 -3 42 0 9 -6 16
-12 15 -7 -1 -42 -3 -79 -5z"/>
<path d="M1143 1288 c-77 -27 -91 -48 -25 -37 26 4 62 4 80 2 33 -6 40 5 26
41 -7 19 -5 20 -81 -6z"/>
<path d="M980 1213 c-54 -5 -193 -33 -210 -43 -22 -12 22 -27 134 -44 145 -23
281 -28 419 -17 127 11 264 36 281 51 14 13 -101 40 -234 54 -42 5 -51 4 -40
-5 16 -12 18 -12 -35 5 -16 5 -23 0 -32 -24 -15 -39 -33 -39 -33 0 l0 30 -107
-2 c-60 -1 -124 -4 -143 -5z m64 -37 c-5 -21 -12 -26 -39 -26 -18 0 -42 -3
-52 -7 -16 -6 -17 -5 -3 12 9 11 10 16 3 11 -8 -4 -13 -2 -13 4 0 8 9 10 24 6
13 -3 26 -3 29 2 2 4 2 1 1 -5 -6 -24 23 -13 35 13 14 32 24 26 15 -10z m159
2 c-4 -7 -6 -22 -4 -33 2 -16 0 -17 -11 -7 -8 6 -18 9 -21 5 -4 -3 -20 -8 -37
-10 -21 -2 -30 1 -30 12 0 18 -17 20 -22 4 -2 -7 -10 -10 -18 -7 -10 3 -7 10
10 26 19 17 36 22 82 22 45 0 57 -3 51 -12z m133 -9 c3 -5 17 -8 32 -8 l27 1
-30 9 c-26 7 -25 8 10 4 22 -3 53 -5 69 -5 35 0 26 -13 -12 -17 -95 -9 -119
-9 -139 2 -13 6 -20 14 -18 17 9 9 55 6 61 -3z"/>
<path d="M275 1200 c3 -10 -5 -22 -25 -34 -29 -16 -32 -17 -43 -2 -30 40 -86
19 -71 -26 4 -13 7 -27 6 -33 -1 -6 31 -10 78 -10 101 -1 108 12 15 28 -16 2
-12 7 18 21 47 23 54 34 33 54 -14 14 -16 14 -11 2z m-69 -62 c8 -27 -1 -33
-31 -20 -26 12 -34 37 -12 45 19 6 36 -3 43 -25z"/>
<path d="M2097 1168 c-39 -14 -30 -28 33 -60 73 -35 104 -44 98 -27 -2 7 -20
17 -39 21 -50 13 -89 29 -89 39 0 12 41 22 92 22 26 0 45 3 42 8 -7 12 -102
10 -137 -3z"/>
<path d="M1867 873 c-2 -16 -5 -50 -6 -78 -2 -60 -30 -97 -59 -79 -13 9 -18
28 -20 93 -2 44 -7 81 -12 81 -14 0 -16 -140 -3 -172 19 -44 73 -37 99 13 19
37 31 154 16 163 -6 3 -12 -5 -15 -21z"/>
<path d="M330 816 c0 -83 -6 -106 -26 -106 -8 0 -14 -4 -14 -9 0 -9 85 -14
113 -5 35 11 17 24 -24 18 -40 -7 -42 -6 -36 17 3 13 9 54 13 92 6 58 5 67
-10 67 -13 0 -16 -12 -16 -74z"/>
<path d="M470 865 c-34 -36 -41 -124 -11 -154 27 -27 53 -27 87 2 22 19 28 34
32 79 6 72 -8 98 -52 98 -22 0 -40 -8 -56 -25z m70 -5 c41 -41 16 -150 -35
-150 -27 0 -48 46 -41 92 7 41 29 78 48 78 4 0 17 -9 28 -20z"/>
<path d="M642 878 c-20 -20 -13 -55 16 -77 49 -37 53 -43 50 -64 -4 -32 -59
-31 -73 1 -13 30 -27 28 -23 -5 4 -37 56 -53 93 -29 41 27 34 70 -16 101 -30
20 -39 32 -37 48 4 30 47 37 55 8 6 -25 23 -18 23 10 0 15 -7 19 -38 19 -21 0
-43 -5 -50 -12z"/>
<path d="M840 848 c-23 -52 -36 -143 -22 -152 6 -3 13 14 17 42 11 77 26 125
36 115 5 -5 14 -43 21 -86 12 -80 23 -96 34 -49 19 86 38 142 45 135 5 -5 12
-44 15 -86 5 -52 11 -77 20 -77 13 0 11 40 -7 137 -10 50 -23 72 -36 59 -4 -3
-16 -36 -29 -72 l-22 -65 -6 38 c-11 59 -27 103 -37 103 -6 0 -19 -19 -29 -42z"/>
<path d="M1116 868 c-8 -13 -20 -36 -28 -53 -7 -16 -20 -35 -28 -42 -10 -8
-11 -12 -3 -13 9 0 10 -7 3 -26 -13 -32 -13 -44 0 -44 5 0 14 18 20 41 11 39
12 40 48 37 35 -3 37 -5 40 -40 4 -46 22 -51 21 -5 -1 48 -32 160 -46 164 -6
3 -18 -6 -27 -19z m28 -32 c3 -13 9 -31 12 -40 5 -13 -1 -16 -25 -16 -35 0
-36 1 -19 47 14 39 24 42 32 9z"/>
<path d="M1230 789 c0 -126 18 -131 22 -7 3 86 4 91 20 75 9 -10 30 -51 45
-92 15 -41 31 -75 34 -75 12 0 19 44 19 123 0 45 -4 77 -10 77 -6 0 -10 -33
-10 -77 l-1 -78 -17 51 c-26 74 -46 102 -76 102 l-26 0 0 -99z"/>
<path d="M1465 853 c-14 -21 -25 -43 -25 -50 0 -6 -9 -18 -21 -26 -12 -9 -16
-16 -9 -19 8 -2 8 -11 0 -32 -6 -16 -8 -31 -6 -33 10 -11 24 9 30 42 6 32 10
35 42 35 35 0 37 -3 48 -52 4 -16 11 -28 16 -28 15 0 12 37 -10 115 -11 39
-20 73 -20 78 0 18 -21 4 -45 -30z m41 -41 c6 -31 5 -32 -25 -32 -36 0 -36 -1
-16 47 17 41 31 36 41 -15z"/>
<path d="M1606 859 c-34 -40 -37 -118 -5 -150 33 -33 109 -11 109 32 0 10 5
21 10 24 20 12 9 20 -27 19 -40 -1 -49 -17 -13 -22 25 -4 25 -14 2 -35 -44
-40 -89 3 -79 76 9 68 75 100 91 44 6 -21 7 -21 17 -4 15 26 -6 47 -46 47 -25
0 -40 -8 -59 -31z"/>
<path d="M1992 878 c-5 -7 -19 -32 -31 -55 -11 -23 -29 -47 -38 -52 -11 -6
-13 -11 -5 -11 9 0 11 -10 6 -35 -9 -48 12 -46 23 3 8 34 12 37 43 37 32 0 36
-3 44 -37 14 -55 30 -47 23 10 -8 61 -35 152 -46 152 -5 0 -13 -6 -19 -12z
m26 -55 c6 -20 10 -39 8 -41 -2 -2 -18 -2 -34 0 l-30 3 15 38 c8 20 18 37 22
37 4 0 13 -17 19 -37z"/>
<path d="M878 491 c-2 -39 0 -47 10 -39 14 12 17 88 3 88 -5 0 -11 -22 -13
-49z"/>
<path d="M1160 505 c0 -19 4 -35 8 -35 5 0 9 16 9 35 0 19 -4 35 -9 35 -4 0
-8 -16 -8 -35z"/>
<path d="M1319 526 c-5 -22 -3 -32 6 -39 6 -5 3 -13 -10 -24 -18 -14 -18 -15
-2 -9 10 3 21 6 23 6 9 0 3 59 -6 65 -5 3 -11 4 -11 1z"/>
<path d="M1354 519 c-4 -7 -3 -9 4 -5 13 8 13 -34 -1 -51 -6 -8 -6 -13 1 -13
16 0 30 24 27 49 -2 28 -19 39 -31 20z"/>
<path d="M1430 519 c0 -5 4 -8 8 -5 10 6 9 -35 -1 -51 -11 -17 -2 -16 16 1 17
18 11 66 -9 66 -8 0 -14 -5 -14 -11z"/>
<path d="M917 513 c-11 -10 -8 -41 4 -49 6 -3 16 -1 22 6 9 9 9 11 -2 8 -7 -2
-15 5 -16 15 -4 19 11 23 18 5 3 -8 6 -6 6 5 1 17 -19 23 -32 10z"/>
<path d="M969 493 c5 -26 6 -26 9 -5 2 12 8 20 13 17 5 -4 9 -1 9 4 0 6 -8 11
-19 11 -15 0 -17 -5 -12 -27z"/>
<path d="M1017 514 c-11 -11 -8 -42 4 -50 6 -3 16 -1 22 6 9 9 9 11 -2 8 -8
-2 -17 5 -19 15 -2 9 2 17 8 17 6 0 8 -4 5 -10 -3 -5 -1 -10 5 -10 14 0 8 22
-6 27 -6 2 -13 0 -17 -3z"/>
<path d="M1064 494 c1 -29 16 -33 16 -3 0 12 4 17 11 14 6 -4 8 -13 5 -21 -3
-8 -1 -14 4 -14 6 0 10 9 10 20 0 27 18 25 23 -2 4 -21 4 -20 6 3 1 24 -2 27
-38 27 -35 1 -39 -2 -37 -24z"/>
<path d="M1195 511 c-3 -6 0 -8 9 -5 10 4 13 0 11 -13 -2 -10 -4 -20 -4 -23
-1 -3 -6 2 -11 10 -6 9 -10 10 -10 3 0 -17 14 -23 29 -14 15 10 11 43 -6 48
-6 2 -14 -1 -18 -6z"/>
<path d="M1247 513 c-4 -3 1 -15 10 -25 16 -18 16 -18 -3 -12 -16 6 -17 5 -6
-7 19 -21 40 5 21 27 -9 12 -10 15 -1 10 6 -4 12 -2 12 3 0 12 -23 15 -33 4z"/>
<path d="M610 409 c-16 -30 -40 -110 -40 -136 0 -32 27 -29 77 7 45 33 100
100 83 100 -7 0 -35 -25 -64 -55 -28 -30 -58 -55 -65 -55 -17 0 -6 51 24 113
18 36 21 47 10 47 -8 0 -19 -9 -25 -21z"/>
<path d="M1626 355 c-3 -9 -6 -38 -6 -64 0 -26 -5 -52 -12 -59 -9 -9 -9 -12 0
-12 7 0 12 -13 12 -29 0 -17 5 -33 11 -37 9 -5 10 6 7 39 -5 44 -4 46 26 57
28 10 33 8 53 -17 12 -15 25 -24 29 -20 8 8 -54 102 -90 136 -21 19 -24 20
-30 6z m42 -92 c-35 -19 -38 -16 -38 35 l1 47 29 -35 30 -34 -22 -13z"/>
<path d="M819 280 c-23 -22 -49 -40 -58 -41 -11 0 -12 -2 -3 -6 9 -3 7 -11 -8
-30 -30 -38 -11 -51 19 -14 22 27 31 31 54 26 24 -6 29 -13 29 -35 0 -3 -3
-15 -7 -27 -5 -17 -2 -23 9 -23 20 0 17 -12 24 98 8 107 3 112 -59 52z m37
-57 c-2 -3 -17 -1 -32 4 l-26 9 28 34 29 34 3 -38 c2 -21 1 -40 -2 -43z"/>
<path d="M1461 284 c-12 -15 -21 -31 -21 -36 0 -5 -14 2 -31 17 -24 20 -35 23
-43 14 -8 -8 -8 -13 1 -16 7 -2 23 -13 37 -24 l25 -20 -19 -42 c-24 -51 -25
-77 -5 -77 10 0 15 11 16 33 1 17 4 43 8 56 6 24 8 23 45 -22 21 -26 42 -47
47 -47 19 0 6 27 -31 65 -22 22 -40 43 -40 47 0 3 11 20 25 36 14 17 25 33 25
36 0 14 -20 4 -39 -20z"/>
<path d="M1020 249 c0 -55 -22 -121 -42 -127 -32 -8 -20 -19 28 -26 65 -8 84
-8 84 4 0 6 -18 10 -40 10 -22 0 -40 2 -40 4 0 2 6 21 13 42 8 22 17 58 21 82
5 34 3 42 -9 42 -10 0 -15 -10 -15 -31z"/>
<path d="M1199 221 c0 -25 -4 -68 -8 -94 l-8 -48 54 3 c29 2 54 7 56 13 1 5
-16 8 -40 7 -42 -3 -43 -3 -43 27 0 33 27 55 54 45 9 -4 16 -1 16 6 0 8 -11
11 -30 8 -28 -4 -30 -3 -30 29 0 33 11 40 57 34 6 -1 14 3 18 9 4 7 -11 10
-44 9 l-51 -2 -1 -46z"/>
</g>
</svg>
